<svg width="48" height="48" viewBox="0 0 48 48" fill="none" xmlns="http://www.w3.org/2000/svg">
<path d="M17.7708 23.3818L28.8395 14.7365C28.8684 14.7137 28.9032 14.6996 28.9398 14.6957C28.9764 14.6918 29.0134 14.6983 29.0464 14.7144C29.0795 14.7306 29.1074 14.7557 29.1268 14.787C29.1462 14.8183 29.1564 14.8544 29.1562 14.8912V16.7892C29.1562 16.9095 29.0998 17.0249 29.0065 17.0986L20.1672 24.0006L29.0065 30.9026C29.1022 30.9762 29.1562 31.0916 29.1562 31.2119V33.1099C29.1562 33.2744 28.9672 33.3653 28.8395 33.2646L17.7708 24.6193C17.6767 24.5459 17.6006 24.4521 17.5482 24.3448C17.4959 24.2376 17.4687 24.1199 17.4687 24.0006C17.4687 23.8812 17.4959 23.7635 17.5482 23.6563C17.6006 23.5491 17.6767 23.4552 17.7708 23.3818Z" fill="white"/>
</svg>
