<svg width="10" height="24" viewBox="0 0 10 24" fill="none" xmlns="http://www.w3.org/2000/svg">
<mask id="mask0_3340_10043" style="mask-type:alpha" maskUnits="userSpaceOnUse" x="0" y="0" width="10" height="24">
<rect width="10" height="24" fill="#D9D9D9"/>
</mask>
<g mask="url(#mask0_3340_10043)">
<path d="M2.35621 4.313L9.29321 11.25C9.39054 11.3473 9.45988 11.448 9.50121 11.552C9.54321 11.656 9.56421 11.7637 9.56421 11.875C9.56421 11.9863 9.54321 12.094 9.50121 12.198C9.45988 12.302 9.39054 12.4027 9.29321 12.5L2.33521 19.458C2.12654 19.6667 1.87288 19.771 1.57421 19.771C1.27554 19.771 1.02221 19.6597 0.814209 19.437C0.591542 19.229 0.487209 18.9723 0.501209 18.667C0.515209 18.361 0.626542 18.104 0.835209 17.896L6.85621 11.875L0.814209 5.833C0.619542 5.639 0.522209 5.38566 0.522209 5.073C0.522209 4.76033 0.619542 4.507 0.814209 4.313C1.02221 4.10433 1.27921 4 1.58521 4C1.89054 4 2.14754 4.10433 2.35621 4.313Z" fill="#B6B7B8"/>
</g>
</svg>
