<svg width="20" height="20" viewBox="0 0 20 20" fill="none" xmlns="http://www.w3.org/2000/svg">
<g clip-path="url(#clip0_3310_11163)">
<path d="M0.625 1.25C0.45924 1.25 0.300269 1.31585 0.183058 1.43306C0.065848 1.55027 0 1.70924 0 1.875C0 2.04076 0.065848 2.19973 0.183058 2.31694C0.300269 2.43415 0.45924 2.5 0.625 2.5H2.0125L2.51375 4.50875L4.38625 14.49C4.41306 14.6332 4.48907 14.7626 4.60114 14.8557C4.71321 14.9488 4.85429 14.9999 5 15H6.25C5.58696 15 4.95107 15.2634 4.48223 15.7322C4.01339 16.2011 3.75 16.837 3.75 17.5C3.75 18.163 4.01339 18.7989 4.48223 19.2678C4.95107 19.7366 5.58696 20 6.25 20C6.91304 20 7.54893 19.7366 8.01777 19.2678C8.48661 18.7989 8.75 18.163 8.75 17.5C8.75 16.837 8.48661 16.2011 8.01777 15.7322C7.54893 15.2634 6.91304 15 6.25 15H15C14.337 15 13.7011 15.2634 13.2322 15.7322C12.7634 16.2011 12.5 16.837 12.5 17.5C12.5 18.163 12.7634 18.7989 13.2322 19.2678C13.7011 19.7366 14.337 20 15 20C15.663 20 16.2989 19.7366 16.7678 19.2678C17.2366 18.7989 17.5 18.163 17.5 17.5C17.5 16.837 17.2366 16.2011 16.7678 15.7322C16.2989 15.2634 15.663 15 15 15H16.25C16.3957 14.9999 16.5368 14.9488 16.6489 14.8557C16.7609 14.7626 16.8369 14.6332 16.8638 14.49L18.7388 4.49C18.7556 4.3998 18.7525 4.30698 18.7294 4.21815C18.7064 4.12931 18.6641 4.04664 18.6055 3.976C18.5469 3.90537 18.4735 3.8485 18.3904 3.80944C18.3074 3.77038 18.2168 3.75008 18.125 3.75H3.6125L3.10625 1.72375C3.07251 1.58848 2.99452 1.46837 2.88466 1.38253C2.77481 1.29669 2.63941 1.25004 2.5 1.25H0.625ZM7.5 17.5C7.5 17.8315 7.3683 18.1495 7.13388 18.3839C6.89946 18.6183 6.58152 18.75 6.25 18.75C5.91848 18.75 5.60054 18.6183 5.36612 18.3839C5.1317 18.1495 5 17.8315 5 17.5C5 17.1685 5.1317 16.8505 5.36612 16.6161C5.60054 16.3817 5.91848 16.25 6.25 16.25C6.58152 16.25 6.89946 16.3817 7.13388 16.6161C7.3683 16.8505 7.5 17.1685 7.5 17.5ZM16.25 17.5C16.25 17.8315 16.1183 18.1495 15.8839 18.3839C15.6495 18.6183 15.3315 18.75 15 18.75C14.6685 18.75 14.3505 18.6183 14.1161 18.3839C13.8817 18.1495 13.75 17.8315 13.75 17.5C13.75 17.1685 13.8817 16.8505 14.1161 16.6161C14.3505 16.3817 14.6685 16.25 15 16.25C15.3315 16.25 15.6495 16.3817 15.8839 16.6161C16.1183 16.8505 16.25 17.1685 16.25 17.5ZM14.1925 7.9425L10.4425 11.6925C10.3844 11.7507 10.3155 11.7969 10.2395 11.8284C10.1636 11.8599 10.0822 11.8761 10 11.8761C9.91779 11.8761 9.83639 11.8599 9.76046 11.8284C9.68453 11.7969 9.61556 11.7507 9.5575 11.6925L7.6825 9.8175C7.62439 9.75939 7.5783 9.6904 7.54685 9.61448C7.5154 9.53856 7.49921 9.45718 7.49921 9.375C7.49921 9.29282 7.5154 9.21144 7.54685 9.13552C7.5783 9.0596 7.62439 8.99061 7.6825 8.9325C7.74061 8.87439 7.8096 8.82829 7.88552 8.79685C7.96145 8.7654 8.04282 8.74921 8.125 8.74921C8.20718 8.74921 8.28856 8.7654 8.36448 8.79685C8.4404 8.82829 8.50939 8.87439 8.5675 8.9325L10 10.3663L13.3075 7.0575C13.3656 6.99939 13.4346 6.95329 13.5105 6.92185C13.5864 6.8904 13.6678 6.87421 13.75 6.87421C13.8322 6.87421 13.9136 6.8904 13.9895 6.92185C14.0654 6.95329 14.1344 6.99939 14.1925 7.0575C14.2506 7.11561 14.2967 7.1846 14.3282 7.26052C14.3596 7.33644 14.3758 7.41782 14.3758 7.5C14.3758 7.58218 14.3596 7.66356 14.3282 7.73948C14.2967 7.8154 14.2506 7.88439 14.1925 7.9425Z" fill="#BF94E4"/>
</g>
<defs>
<clipPath id="clip0_3310_11163">
<rect width="20" height="20" fill="white"/>
</clipPath>
</defs>
</svg>
