<svg width="56" height="56" viewBox="0 0 56 56" fill="none" xmlns="http://www.w3.org/2000/svg">
<g clip-path="url(#clip0_3272_8935)">
<path d="M7 0C5.14348 0 3.36301 0.737498 2.05025 2.05025C0.737498 3.36301 0 5.14348 0 7L0 51.7755C7.35521e-05 52.1218 0.102874 52.4602 0.29539 52.7481C0.487907 53.0359 0.761484 53.2601 1.0815 53.3924C1.40151 53.5247 1.75357 53.5591 2.09313 53.4912C2.43268 53.4233 2.74446 53.2562 2.989 53.011L12.9745 43.0255C13.6307 42.3691 14.5208 42.0002 15.449 42H49C50.8565 42 52.637 41.2625 53.9497 39.9497C55.2625 38.637 56 36.8565 56 35V7C56 5.14348 55.2625 3.36301 53.9497 2.05025C52.637 0.737498 50.8565 0 49 0L7 0ZM28 13.9755C33.824 7.987 48.3875 18.466 28 31.9375C7.6125 18.4625 22.176 7.987 28 13.9755V13.9755Z" fill="#FF7785"/>
</g>
<defs>
<clipPath id="clip0_3272_8935">
<rect width="56" height="56" fill="white"/>
</clipPath>
</defs>
</svg>
