<svg width="18" height="18" viewBox="0 0 18 18" fill="none" xmlns="http://www.w3.org/2000/svg">
<g clip-path="url(#clip0_3266_9098)">
<path d="M2.25 0C1.65326 0 1.08097 0.237053 0.65901 0.65901C0.237053 1.08097 0 1.65326 0 2.25L0 16.6421C2.36417e-05 16.7534 0.0330667 16.8622 0.0949469 16.9547C0.156827 17.0473 0.244763 17.1193 0.347624 17.1618C0.450486 17.2044 0.563649 17.2154 0.672791 17.1936C0.781932 17.1718 0.882147 17.1181 0.96075 17.0392L4.17037 13.8296C4.3813 13.6186 4.66741 13.5001 4.96575 13.5H15.75C16.3467 13.5 16.919 13.2629 17.341 12.841C17.7629 12.419 18 11.8467 18 11.25V2.25C18 1.65326 17.7629 1.08097 17.341 0.65901C16.919 0.237053 16.3467 0 15.75 0L2.25 0ZM9 4.49213C10.872 2.56725 15.5531 5.9355 9 10.2656C2.44688 5.93438 7.128 2.56725 9 4.49213Z" fill="#BF94E4"/>
</g>
<defs>
<clipPath id="clip0_3266_9098">
<rect width="18" height="18" fill="white"/>
</clipPath>
</defs>
</svg>
