<svg width="24" height="24" viewBox="0 0 24 24" fill="none" xmlns="http://www.w3.org/2000/svg">
<g clip-path="url(#clip0_2388_7947)">
<path d="M12 22.5C9.21523 22.5 6.54451 21.3938 4.57538 19.4246C2.60625 17.4555 1.5 14.7848 1.5 12C1.5 9.21523 2.60625 6.54451 4.57538 4.57538C6.54451 2.60625 9.21523 1.5 12 1.5C14.7848 1.5 17.4555 2.60625 19.4246 4.57538C21.3938 6.54451 22.5 9.21523 22.5 12C22.5 14.7848 21.3938 17.4555 19.4246 19.4246C17.4555 21.3938 14.7848 22.5 12 22.5ZM12 24C15.1826 24 18.2348 22.7357 20.4853 20.4853C22.7357 18.2348 24 15.1826 24 12C24 8.8174 22.7357 5.76516 20.4853 3.51472C18.2348 1.26428 15.1826 0 12 0C8.8174 0 5.76516 1.26428 3.51472 3.51472C1.26428 5.76516 0 8.8174 0 12C0 15.1826 1.26428 18.2348 3.51472 20.4853C5.76516 22.7357 8.8174 24 12 24Z" fill="#B6B7B8"/>
<path d="M16.455 7.45505C16.4443 7.46541 16.4343 7.47643 16.425 7.48805L11.2155 14.1256L8.07602 10.9846C7.86276 10.7858 7.58069 10.6777 7.28924 10.6828C6.99778 10.6879 6.71971 10.806 6.51359 11.0121C6.30747 11.2182 6.1894 11.4963 6.18426 11.7878C6.17911 12.0792 6.2873 12.3613 6.48602 12.5746L10.455 16.5451C10.5619 16.6518 10.6893 16.7359 10.8294 16.7923C10.9695 16.8488 11.1196 16.8764 11.2706 16.8736C11.4217 16.8708 11.5706 16.8376 11.7086 16.776C11.8465 16.7144 11.9706 16.6257 12.0735 16.5151L18.0615 9.03005C18.2654 8.81605 18.3769 8.5304 18.3719 8.23486C18.3668 7.93931 18.2457 7.65763 18.0346 7.4507C17.8235 7.24377 17.5395 7.12822 17.2439 7.12903C16.9483 7.12985 16.6649 7.24696 16.455 7.45505Z" fill="#B6B7B8"/>
</g>
<defs>
<clipPath id="clip0_2388_7947">
<rect width="24" height="24" fill="white"/>
</clipPath>
</defs>
</svg>
