<svg width="14" height="9" viewBox="0 0 14 9" fill="none" xmlns="http://www.w3.org/2000/svg">
<path fill-rule="evenodd" clip-rule="evenodd" d="M0.645917 0.496711C0.692363 0.444974 0.747539 0.403926 0.808284 0.375919C0.869029 0.347912 0.93415 0.333496 0.999917 0.333496C1.06568 0.333496 1.13081 0.347912 1.19155 0.375919C1.2523 0.403926 1.30747 0.444974 1.35392 0.496711L6.99992 6.77116L12.6459 0.496711C12.6924 0.445058 12.7476 0.404084 12.8083 0.37613C12.8691 0.348175 12.9342 0.333787 12.9999 0.333787C13.0657 0.333787 13.1308 0.348175 13.1915 0.37613C13.2522 0.404084 13.3074 0.445058 13.3539 0.496711C13.4004 0.548364 13.4373 0.609686 13.4624 0.677174C13.4876 0.744662 13.5005 0.816996 13.5005 0.890045C13.5005 0.963093 13.4876 1.03543 13.4624 1.10292C13.4373 1.1704 13.4004 1.23172 13.3539 1.28338L7.35392 7.95005C7.30747 8.00178 7.2523 8.04283 7.19155 8.07084C7.13081 8.09884 7.06568 8.11326 6.99992 8.11326C6.93415 8.11326 6.86903 8.09884 6.80828 8.07084C6.74754 8.04283 6.69236 8.00178 6.64592 7.95005L0.645917 1.28338C0.599354 1.23177 0.562411 1.17047 0.537205 1.10297C0.511998 1.03548 0.499023 0.963119 0.499023 0.890045C0.499023 0.81697 0.511998 0.744613 0.537205 0.677118C0.562411 0.609624 0.599354 0.548317 0.645917 0.496711Z" fill="#FAFAFA"/>
</svg>
