<svg width="40" height="40" viewBox="0 0 40 40" fill="none" xmlns="http://www.w3.org/2000/svg">
<path fill-rule="evenodd" clip-rule="evenodd" d="M13.1469 16.1632C13.1933 16.1115 13.2485 16.0704 13.3093 16.0424C13.37 16.0144 13.4351 16 13.5009 16C13.5667 16 13.6318 16.0144 13.6925 16.0424C13.7533 16.0704 13.8084 16.1115 13.8549 16.1632L19.5009 22.4377L25.1469 16.1632C25.1934 16.1116 25.2486 16.0706 25.3093 16.0426C25.37 16.0147 25.4351 16.0003 25.5009 16.0003C25.5666 16.0003 25.6317 16.0147 25.6925 16.0426C25.7532 16.0706 25.8084 16.1116 25.8549 16.1632C25.9014 16.2149 25.9383 16.2762 25.9634 16.3437C25.9886 16.4112 26.0015 16.4835 26.0015 16.5565C26.0015 16.6296 25.9886 16.7019 25.9634 16.7694C25.9383 16.8369 25.9014 16.8982 25.8549 16.9499L19.8549 23.6165C19.8084 23.6683 19.7533 23.7093 19.6925 23.7373C19.6318 23.7653 19.5667 23.7798 19.5009 23.7798C19.4351 23.7798 19.37 23.7653 19.3093 23.7373C19.2485 23.7093 19.1933 23.6683 19.1469 23.6165L13.1469 16.9499C13.1003 16.8983 13.0634 16.837 13.0382 16.7695C13.013 16.702 13 16.6296 13 16.5565C13 16.4835 13.013 16.4111 13.0382 16.3436C13.0634 16.2761 13.1003 16.2148 13.1469 16.1632V16.1632Z" fill="#FAFAFA"/>
</svg>
