<svg width="40" height="40" viewBox="0 0 40 40" fill="none" xmlns="http://www.w3.org/2000/svg">
<path fill-rule="evenodd" clip-rule="evenodd" d="M25.8546 23.6166C25.8081 23.6683 25.7529 23.7094 25.6922 23.7374C25.6315 23.7654 25.5663 23.7798 25.5006 23.7798C25.4348 23.7798 25.3697 23.7654 25.3089 23.7374C25.2482 23.7094 25.193 23.6683 25.1466 23.6166L19.5006 17.3421L13.8546 23.6166C13.8081 23.6682 13.7529 23.7092 13.6922 23.7372C13.6314 23.7651 13.5663 23.7795 13.5006 23.7795C13.4348 23.7795 13.3697 23.7651 13.309 23.7372C13.2482 23.7092 13.1931 23.6682 13.1466 23.6166C13.1001 23.5649 13.0632 23.5036 13.038 23.4361C13.0129 23.3686 12.9999 23.2963 12.9999 23.2232C12.9999 23.1502 13.0129 23.0779 13.038 23.0104C13.0632 22.9429 13.1001 22.8816 13.1466 22.8299L19.1466 16.1632C19.193 16.1115 19.2482 16.0705 19.3089 16.0424C19.3697 16.0144 19.4348 16 19.5006 16C19.5663 16 19.6315 16.0144 19.6922 16.0424C19.7529 16.0705 19.8081 16.1115 19.8546 16.1632L25.8546 22.8299C25.9011 22.8815 25.9381 22.9428 25.9633 23.0103C25.9885 23.0778 26.0015 23.1502 26.0015 23.2232C26.0015 23.2963 25.9885 23.3687 25.9633 23.4362C25.9381 23.5037 25.9011 23.565 25.8546 23.6166Z" fill="#FAFAFA"/>
</svg>
