<svg width="48" height="48" viewBox="0 0 48 48" fill="none" xmlns="http://www.w3.org/2000/svg">
<path fill-rule="evenodd" clip-rule="evenodd" d="M4.65896 20.328C4.8372 19.9731 5.14889 19.7034 5.52568 19.578C5.90247 19.4526 6.31361 19.4817 6.66896 19.659L24 28.32L41.328 19.656C41.5043 19.5659 41.6966 19.5117 41.894 19.4963C42.0914 19.481 42.2898 19.5048 42.4779 19.5665C42.666 19.6282 42.84 19.7266 42.9899 19.8558C43.1399 19.9851 43.2627 20.1428 43.3514 20.3198C43.4401 20.4968 43.4929 20.6895 43.5067 20.887C43.5205 21.0845 43.4951 21.2828 43.432 21.4704C43.3688 21.658 43.2691 21.8312 43.1387 21.9802C43.0082 22.1291 42.8496 22.2507 42.672 22.338L24.672 31.338C24.4634 31.4425 24.2333 31.4969 24 31.4969C23.7666 31.4969 23.5366 31.4425 23.328 31.338L5.32796 22.338C4.9731 22.1598 4.70339 21.8481 4.57798 21.4713C4.45258 21.0945 4.4817 20.6833 4.65896 20.328V20.328Z" fill="white"/>
</svg>
