<svg width="56" height="54" viewBox="0 0 56 54" fill="none" xmlns="http://www.w3.org/2000/svg">
<g clip-path="url(#clip0_3272_9138)">
<path d="M23.3431 1.96173C23.2533 2.01562 23.1631 2.07416 23.0751 2.13513C19.7726 4.90957 20.0171 9.96946 21.7206 13.5641C23.1043 16.9203 26.8015 20.1155 30.6188 18.823C31.1686 18.6288 31.6576 18.286 32.0648 17.8728C35.3698 14.1005 34.372 8.16357 31.4289 4.47975C29.739 1.97758 26.127 0.290973 23.3431 1.96173ZM7.8726 11.2035C5.62203 12.5905 5.19338 15.9431 6.10055 18.3308C7.85195 23.0882 12.9376 27.3031 18.2256 26.0477C18.6998 25.8939 19.1406 25.6495 19.5274 25.336C22.2692 23.0596 21.5708 18.9048 19.8415 16.2303C17.6364 12.6578 13.309 9.56328 8.94937 10.7388C8.55198 10.8482 8.19412 11.0053 7.8726 11.2035ZM40.5301 8.57752C36.7179 11.1164 36.3074 16.6361 38.0667 20.5412C39.0912 23.5001 42.5757 26.2252 45.7277 24.6717C49.9201 22.158 50.1705 15.9664 48.0268 12.014C46.797 9.29046 43.4673 7.0552 40.5301 8.57752ZM6.4675 29.6059C4.77864 30.5711 3.7127 32.5411 4.15935 34.5695C5.35809 39.993 11.6738 44.0652 17.0733 42.2041C19.2947 41.3722 20.1653 38.7864 19.5781 36.6281C18.3124 32.0174 13.4302 28.653 8.68447 28.9917C7.88676 29.0047 7.12836 29.2283 6.4675 29.6059ZM28.9515 27.4773C25.6612 29.4047 23.2897 33.0271 22.6073 36.7592C21.9941 41.0029 22.0744 45.4785 23.4699 49.5694C24.1089 52.7273 27.9098 54.5746 30.7372 52.9508C34.1807 51.0696 35.7365 47.0449 39.0053 44.9078C41.6101 42.8054 45.0368 42.8002 48.1743 42.2751C50.9083 41.9354 53.7232 39.8139 53.4675 36.8075C52.947 33.8947 50.1613 32.0892 47.847 30.5821C43.6443 28.3959 39.1828 26.1242 34.3399 26.0528C32.3845 25.9998 30.5584 26.5359 28.9515 27.4773Z" fill="#FF7785"/>
</g>
<defs>
<clipPath id="clip0_3272_9138">
<rect width="56" height="53.9238" fill="white"/>
</clipPath>
</defs>
</svg>
