<svg width="25" height="25" viewBox="0 0 25 25" fill="none" xmlns="http://www.w3.org/2000/svg">
<g clip-path="url(#clip0_2415_7966)">
<path d="M12.2357 0.541993C5.61158 0.539315 0.246399 5.90182 0.246399 12.5206C0.246399 17.7545 3.60265 22.2036 8.27676 23.8375C8.90622 23.9956 8.80979 23.5482 8.80979 23.2429V21.167C5.17497 21.5929 5.02765 19.1875 4.7839 18.7857C4.29104 17.9447 3.12586 17.7304 3.47408 17.3286C4.30176 16.9027 5.14551 17.4357 6.12318 18.8795C6.83033 19.9268 8.20979 19.75 8.9089 19.5759C9.06158 18.9465 9.38836 18.384 9.83836 17.9474C6.07229 17.2724 4.50265 14.9741 4.50265 12.242C4.50265 10.9161 4.93926 9.69735 5.7964 8.71432C5.24997 7.09378 5.84729 5.70628 5.92765 5.50003C7.4839 5.36074 9.10176 6.61432 9.22765 6.71342C10.1116 6.47503 11.1214 6.34914 12.2518 6.34914C13.3875 6.34914 14.4 6.48039 15.2919 6.72146C15.5946 6.4911 17.0946 5.41432 18.541 5.54557C18.6187 5.75182 19.2027 7.10717 18.6884 8.70628C19.5562 9.69199 19.9982 10.9215 19.9982 12.25C19.9982 14.9875 18.4178 17.2884 14.641 17.9527C14.9645 18.2708 15.2214 18.6502 15.3966 19.0688C15.5718 19.4873 15.6619 19.9365 15.6616 20.3902V23.4036C15.683 23.6447 15.6616 23.8831 16.0634 23.8831C20.8071 22.284 24.2223 17.8027 24.2223 12.5232C24.2223 5.90181 18.8544 0.541993 12.2357 0.541993Z" fill="white"/>
</g>
<defs>
<clipPath id="clip0_2415_7966">
<rect width="24" height="24" fill="white" transform="translate(0.246399 0.213867)"/>
</clipPath>
</defs>
</svg>
