<svg width="20" height="20" viewBox="0 0 20 20" fill="none" xmlns="http://www.w3.org/2000/svg">
<path fill-rule="evenodd" clip-rule="evenodd" d="M10 4.11625L17.5 11.6163V16.875C17.5 17.3723 17.3025 17.8492 16.9508 18.2008C16.5992 18.5525 16.1223 18.75 15.625 18.75H4.375C3.87772 18.75 3.40081 18.5525 3.04917 18.2008C2.69754 17.8492 2.5 17.3723 2.5 16.875V11.6163L10 4.11625ZM16.25 3.125V7.5L13.75 5V3.125C13.75 2.95924 13.8158 2.80027 13.9331 2.68306C14.0503 2.56585 14.2092 2.5 14.375 2.5H15.625C15.7908 2.5 15.9497 2.56585 16.0669 2.68306C16.1842 2.80027 16.25 2.95924 16.25 3.125Z" fill="#BF94E4"/>
<path fill-rule="evenodd" clip-rule="evenodd" d="M9.11625 1.87502C9.35066 1.64068 9.66854 1.50903 10 1.50903C10.3315 1.50903 10.6493 1.64068 10.8837 1.87502L19.1925 10.1825C19.3099 10.2999 19.3758 10.459 19.3758 10.625C19.3758 10.791 19.3099 10.9502 19.1925 11.0675C19.0751 11.1849 18.916 11.2508 18.75 11.2508C18.584 11.2508 18.4249 11.1849 18.3075 11.0675L10 2.75877L1.6925 11.0675C1.57514 11.1849 1.41597 11.2508 1.25 11.2508C1.08403 11.2508 0.924854 11.1849 0.807496 11.0675C0.690138 10.9502 0.624207 10.791 0.624207 10.625C0.624207 10.459 0.690138 10.2999 0.807496 10.1825L9.11625 1.87502Z" fill="#BF94E4"/>
</svg>
