<svg width="25" height="25" viewBox="0 0 25 25" fill="none" xmlns="http://www.w3.org/2000/svg">
<path d="M12.2457 6.71623C9.20551 6.71623 6.75194 9.1698 6.75194 12.21C6.75194 15.2502 9.20551 17.7037 12.2457 17.7037C15.2859 17.7037 17.7394 15.2502 17.7394 12.21C17.7394 9.1698 15.2859 6.71623 12.2457 6.71623ZM12.2457 15.7805C10.2796 15.7805 8.67515 14.176 8.67515 12.21C8.67515 10.2439 10.2796 8.63944 12.2457 8.63944C14.2118 8.63944 15.8162 10.2439 15.8162 12.21C15.8162 14.176 14.2118 15.7805 12.2457 15.7805ZM17.9644 5.21087C17.2546 5.21087 16.6814 5.78408 16.6814 6.49391C16.6814 7.20373 17.2546 7.77694 17.9644 7.77694C18.6743 7.77694 19.2475 7.20641 19.2475 6.49391C19.2477 6.32536 19.2146 6.15842 19.1502 6.00266C19.0858 5.8469 18.9913 5.70537 18.8722 5.58619C18.753 5.46701 18.6115 5.37251 18.4557 5.3081C18.2999 5.2437 18.133 5.21066 17.9644 5.21087ZM22.9546 12.21C22.9546 10.7314 22.968 9.26623 22.885 7.79033C22.8019 6.07605 22.4109 4.55462 21.1573 3.30105C19.901 2.0448 18.3823 1.6564 16.668 1.57337C15.1894 1.49033 13.7243 1.50373 12.2484 1.50373C10.7698 1.50373 9.30462 1.49033 7.82873 1.57337C6.11444 1.6564 4.59301 2.04748 3.33944 3.30105C2.08319 4.5573 1.6948 6.07605 1.61176 7.79033C1.52872 9.2689 1.54212 10.7341 1.54212 12.21C1.54212 13.6859 1.52872 15.1537 1.61176 16.6296C1.6948 18.3439 2.08587 19.8653 3.33944 21.1189C4.59569 22.3752 6.11444 22.7635 7.82873 22.8466C9.3073 22.9296 10.7725 22.9162 12.2484 22.9162C13.7269 22.9162 15.1921 22.9296 16.668 22.8466C18.3823 22.7635 19.9037 22.3725 21.1573 21.1189C22.4135 19.8627 22.8019 18.3439 22.885 16.6296C22.9707 15.1537 22.9546 13.6885 22.9546 12.21ZM20.5975 18.526C20.4019 19.0135 20.1662 19.3778 19.7885 19.7528C19.4109 20.1305 19.0493 20.3662 18.5618 20.5618C17.1528 21.1216 13.8073 20.9957 12.2457 20.9957C10.6841 20.9957 7.33587 21.1216 5.92694 20.5644C5.43944 20.3689 5.07515 20.1332 4.70015 19.7555C4.32248 19.3778 4.08676 19.0162 3.89123 18.5287C3.33408 17.1171 3.45998 13.7716 3.45998 12.21C3.45998 10.6484 3.33408 7.30016 3.89123 5.89123C4.08676 5.40373 4.32248 5.03944 4.70015 4.66444C5.07783 4.28944 5.43944 4.05105 5.92694 3.85551C7.33587 3.29837 10.6841 3.42426 12.2457 3.42426C13.8073 3.42426 17.1555 3.29837 18.5644 3.85551C19.0519 4.05105 19.4162 4.28676 19.7912 4.66444C20.1689 5.04212 20.4046 5.40373 20.6002 5.89123C21.1573 7.30016 21.0314 10.6484 21.0314 12.21C21.0314 13.7716 21.1573 17.1171 20.5975 18.526Z" fill="white" fill-opacity="0.85"/>
</svg>
