<svg width="23" height="24" viewBox="0 0 23 24" fill="none" xmlns="http://www.w3.org/2000/svg">
<path d="M10.7699 0H11.9247C11.965 0.00952237 12.0058 0.0164819 12.0469 0.0208368C12.899 0.062303 13.7437 0.199141 14.5652 0.428787C17.2541 1.1872 19.436 2.66962 21.0126 4.99582C21.8937 6.28966 22.4467 7.77854 22.6238 9.33389C22.6489 9.5528 22.6712 9.77247 22.6946 9.99163V11.0209C22.6848 11.061 22.6774 11.1017 22.6725 11.1427C22.6375 11.727 22.5466 12.3067 22.4008 12.8736C21.7908 15.2443 20.4721 17.1464 18.5317 18.6141C16.3948 20.2308 13.9627 20.9857 11.2915 20.989C10.5971 20.994 9.90385 20.9303 9.22192 20.7989C9.04619 20.764 8.93724 20.8092 8.80946 20.9046C7.42268 21.9386 6.03431 22.9704 4.64435 24H4.46862C4.30921 23.9247 4.259 23.7992 4.2595 23.6257C4.26377 22.0243 4.26126 20.4231 4.26427 18.8217C4.26427 18.7275 4.23213 18.6728 4.16209 18.6136C3.65146 18.182 3.12452 17.7673 2.64226 17.3059C1.1046 15.834 0.277657 14.0151 0.0725523 11.9051C0.0471967 11.6438 0.0251046 11.3827 0 11.1213V9.99163C0.00953575 9.94752 0.0167424 9.90294 0.02159 9.85808C0.0891744 8.74219 0.352606 7.64691 0.799833 6.62234C1.71791 4.5108 3.19707 2.88954 5.15674 1.70008C6.65423 0.790795 8.28176 0.258828 10.023 0.0725523C10.2718 0.0459414 10.5208 0.0251046 10.7699 0ZM11.5562 11.4788C11.5205 11.4708 11.4845 11.465 11.4482 11.4613C10.9589 11.4613 10.4691 11.4613 9.98008 11.459C9.90326 11.459 9.88343 11.4964 9.8631 11.5594C9.74377 11.932 9.5271 12.2659 9.23548 12.5267C8.20067 13.4608 6.47222 13.3426 5.53406 12.2669C4.92728 11.5707 4.75883 10.7543 4.93531 9.86385C5.09874 9.03866 5.55138 8.41883 6.31833 8.05155C6.80076 7.81969 7.3411 7.73608 7.87105 7.8113C8.76351 7.9313 9.43205 8.37163 9.79883 9.21715C9.84753 9.32987 9.85707 9.49607 9.94067 9.54828C10.0343 9.60678 10.1917 9.56485 10.321 9.56485C10.7262 9.56485 11.1316 9.56485 11.5351 9.56485C11.5387 9.55431 11.5409 9.54334 11.5416 9.53222C11.2943 8.34552 10.7059 7.38929 9.64042 6.77071C8.79565 6.27992 7.87632 6.1431 6.91657 6.27565C5.7477 6.43682 4.78669 6.97205 4.08326 7.92703C3.39565 8.86067 3.16745 9.91958 3.30502 11.0606C3.4328 12.1112 3.88243 13.0029 4.68577 13.6966C5.62519 14.5067 6.73105 14.8288 7.95665 14.7123C9.50159 14.5652 10.6112 13.7819 11.2494 12.3603C11.3774 12.0808 11.4537 11.7803 11.5562 11.4788ZM14.4336 6.2636H12.9364V14.5657H14.4351V14.41C14.4351 13.389 14.4316 12.3683 14.4351 11.3473C14.4387 10.5464 14.8275 10.0697 15.5397 9.97531C16.1832 9.88996 16.6895 10.2013 16.8294 10.7807C16.8593 10.9151 16.8736 11.0526 16.8718 11.1904C16.8753 12.2739 16.8753 13.3575 16.8718 14.4412C16.8718 14.5464 16.9022 14.5752 17.0054 14.574C17.4236 14.5687 17.8421 14.572 18.2606 14.5715C18.2967 14.5715 18.3326 14.5659 18.3801 14.5622V14.4442C18.3801 13.2854 18.3828 12.1265 18.3776 10.9677C18.3765 10.7588 18.3581 10.5503 18.3226 10.3444C18.172 9.47699 17.5444 8.7949 16.7059 8.62795C16.4197 8.57071 16.1144 8.5687 15.8217 8.5918C15.2834 8.63448 14.824 8.85615 14.4911 9.3005C14.473 9.32007 14.4534 9.33828 14.4326 9.35498L14.4336 6.2636Z" fill="black"/>
</svg>
