<svg width="56" height="56" viewBox="0 0 56 56" fill="none" xmlns="http://www.w3.org/2000/svg">
<rect width="56" height="56" rx="12" fill="#FFEB00"/>
<path d="M27.0332 8H28.9668C29.0342 8.01594 29.1026 8.0276 29.1715 8.03489C30.5982 8.10432 32.0125 8.33344 33.3881 8.71796C37.8905 9.98785 41.5438 12.47 44.1836 16.365C45.6591 18.5315 46.585 21.0245 46.8815 23.6288C46.9235 23.9953 46.9609 24.3631 47 24.7301V26.4535C46.9836 26.5207 46.9712 26.5888 46.963 26.6574C46.9045 27.6359 46.7522 28.6064 46.5082 29.5558C45.4867 33.5252 43.2786 36.7102 40.0297 39.1676C36.4516 41.8746 32.3792 43.1386 27.9067 43.1441C26.7439 43.1526 25.5831 43.046 24.4413 42.8259C24.147 42.7675 23.9646 42.8431 23.7506 43.0029C21.4286 44.7342 19.1039 46.4618 16.7765 48.1858H16.4823C16.2154 48.0597 16.1313 47.8496 16.1321 47.5591C16.1393 44.8777 16.1351 42.1966 16.1401 39.5152C16.1401 39.3576 16.0863 39.2659 15.969 39.1667C15.114 38.4441 14.2317 37.7497 13.4242 36.9771C10.8496 34.5126 9.46491 31.4671 9.12148 27.934C9.07903 27.4964 9.04204 27.0593 9 26.6217V24.7301C9.01597 24.6562 9.02803 24.5816 9.03615 24.5065C9.14931 22.638 9.59041 20.8041 10.3392 19.0885C11.8765 15.5529 14.3532 12.8383 17.6345 10.8466C20.1419 9.32412 22.8671 8.43338 25.7826 8.12148C26.1992 8.07692 26.6162 8.04204 27.0332 8ZM28.3497 27.2203C28.2901 27.2069 28.2298 27.197 28.169 27.1908C27.3497 27.1908 26.5296 27.1908 25.7108 27.1871C25.5821 27.1871 25.5489 27.2497 25.5149 27.3552C25.3151 27.979 24.9523 28.5382 24.464 28.9748C22.7313 30.539 19.8371 30.341 18.2663 28.5398C17.2503 27.3741 16.9682 26.0071 17.2637 24.5161C17.5374 23.1344 18.2953 22.0966 19.5795 21.4816C20.3873 21.0934 21.292 20.9534 22.1794 21.0793C23.6737 21.2802 24.7931 22.0175 25.4073 23.4333C25.4888 23.622 25.5048 23.9003 25.6448 23.9877C25.8015 24.0857 26.0651 24.0155 26.2816 24.0155C26.96 24.0155 27.6389 24.0155 28.3144 24.0155C28.3204 23.9978 28.3241 23.9795 28.3254 23.9608C27.9113 21.9738 26.926 20.3727 25.142 19.3369C23.7275 18.5152 22.1882 18.2861 20.5812 18.508C18.624 18.7779 17.0149 19.6741 15.8371 21.2731C14.6857 22.8364 14.3036 24.6094 14.534 26.52C14.7479 28.2791 15.5008 29.7722 16.8459 30.9337C18.4189 32.2902 20.2705 32.8295 22.3227 32.6344C24.9096 32.3881 26.7675 31.0766 27.8361 28.6961C28.0504 28.2283 28.1782 27.7251 28.3497 27.2203ZM33.1678 18.4878H30.6608V32.3889H33.1704V32.1283C33.1704 30.4187 33.1645 28.7096 33.1704 27C33.1762 25.6591 33.8274 24.8608 35.0199 24.7028C36.0973 24.5598 36.9451 25.0811 37.1793 26.0513C37.2295 26.2764 37.2533 26.5066 37.2503 26.7373C37.2562 28.5515 37.2562 30.3659 37.2503 32.1804C37.2503 32.3566 37.3012 32.4049 37.4739 32.4028C38.1742 32.394 38.875 32.3994 39.5757 32.3986C39.6362 32.3986 39.6963 32.3894 39.7758 32.3831V32.1855C39.7758 30.2451 39.7804 28.3048 39.7716 26.3644C39.7697 26.0146 39.739 25.6655 39.6795 25.3207C39.4273 23.8684 38.3764 22.7263 36.9725 22.4467C36.4933 22.3509 35.9821 22.3475 35.492 22.3862C34.5907 22.4577 33.8215 22.8288 33.2641 23.5729C33.2337 23.6056 33.201 23.6361 33.1662 23.6641L33.1678 18.4878Z" fill="black"/>
</svg>
