<svg width="12" height="12" viewBox="0 0 12 12" fill="none" xmlns="http://www.w3.org/2000/svg">
<g clip-path="url(#clip0_2703_8478)">
<path d="M6 12C6 12 10.5 7.7355 10.5 4.5C10.5 3.30653 10.0259 2.16193 9.18198 1.31802C8.33807 0.474106 7.19347 0 6 0C4.80653 0 3.66193 0.474106 2.81802 1.31802C1.97411 2.16193 1.5 3.30653 1.5 4.5C1.5 7.7355 6 12 6 12ZM6 6.75C5.40326 6.75 4.83097 6.51295 4.40901 6.09099C3.98705 5.66903 3.75 5.09674 3.75 4.5C3.75 3.90326 3.98705 3.33097 4.40901 2.90901C4.83097 2.48705 5.40326 2.25 6 2.25C6.59674 2.25 7.16903 2.48705 7.59099 2.90901C8.01295 3.33097 8.25 3.90326 8.25 4.5C8.25 5.09674 8.01295 5.66903 7.59099 6.09099C7.16903 6.51295 6.59674 6.75 6 6.75Z" fill="black"/>
</g>
<defs>
<clipPath id="clip0_2703_8478">
<rect width="12" height="12" fill="white"/>
</clipPath>
</defs>
</svg>
