<svg width="56" height="56" viewBox="0 0 56 56" fill="none" xmlns="http://www.w3.org/2000/svg">
<g clip-path="url(#clip0_3272_8983)">
<path d="M28 56C28 56 49 36.099 49 21C49 15.4305 46.7875 10.089 42.8492 6.15076C38.911 2.21249 33.5695 0 28 0C22.4305 0 17.089 2.21249 13.1508 6.15076C9.21249 10.089 7 15.4305 7 21C7 36.099 28 56 28 56ZM28 31.5C25.2152 31.5 22.5445 30.3938 20.5754 28.4246C18.6062 26.4555 17.5 23.7848 17.5 21C17.5 18.2152 18.6062 15.5445 20.5754 13.5754C22.5445 11.6062 25.2152 10.5 28 10.5C30.7848 10.5 33.4555 11.6062 35.4246 13.5754C37.3938 15.5445 38.5 18.2152 38.5 21C38.5 23.7848 37.3938 26.4555 35.4246 28.4246C33.4555 30.3938 30.7848 31.5 28 31.5Z" fill="#FF7785"/>
</g>
<defs>
<clipPath id="clip0_3272_8983">
<rect width="56" height="56" fill="white"/>
</clipPath>
</defs>
</svg>
