<svg width="40" height="40" viewBox="0 0 40 40" fill="none" xmlns="http://www.w3.org/2000/svg">
<g clip-path="url(#clip0_3094_8872)">
<path d="M27.8542 12.1459C27.9234 12.2152 27.9707 12.3034 27.9903 12.3994C28.0098 12.4954 28.0008 12.595 27.9642 12.6859L22.1452 27.2329C22.0939 27.361 22.0083 27.4725 21.8977 27.5551C21.7872 27.6377 21.656 27.6881 21.5186 27.7009C21.3812 27.7138 21.2429 27.6884 21.119 27.6277C20.995 27.567 20.8903 27.4733 20.8162 27.3569L17.6382 22.3619L12.6432 19.1839C12.5265 19.1099 12.4325 19.0051 12.3716 18.881C12.3108 18.757 12.2853 18.6185 12.2982 18.481C12.311 18.3434 12.3616 18.212 12.4443 18.1014C12.5271 17.9907 12.6388 17.9051 12.7672 17.8539L27.3142 12.0369C27.4051 12.0003 27.5047 11.9912 27.6007 12.0108C27.6967 12.0304 27.7848 12.0777 27.8542 12.1469V12.1459ZM18.6362 22.0699L21.3972 26.4079L26.1302 14.5759L18.6362 22.0699ZM25.4232 13.8689L13.5912 18.6019L17.9302 21.3619L25.4242 13.8689H25.4232Z" fill="#FAFAFA"/>
</g>
<defs>
<clipPath id="clip0_3094_8872">
<rect width="16" height="16" fill="white" transform="translate(12 12)"/>
</clipPath>
</defs>
</svg>
