<svg width="30" height="30" viewBox="0 0 30 30" fill="none" xmlns="http://www.w3.org/2000/svg">
<path d="M7.5 9.09375V10.7813H9.375V9.09375H7.5ZM20.625 9.09375V10.7813H22.5V9.09375H20.625ZM7.5 12.4688V14.1563H9.375V12.4688H7.5ZM20.625 12.4688V14.1563H22.5V12.4688H20.625ZM7.5 15.8438V17.5313H9.375V15.8438H7.5ZM20.625 15.8438V17.5313H22.5V15.8438H20.625ZM7.5 19.2188V20.9062H9.375V19.2188H7.5ZM20.625 19.2188V20.9062H22.5V19.2188H20.625Z" fill="white"/>
<path d="M2.8125 5.625C2.06658 5.625 1.35121 5.92132 0.823762 6.44876C0.296316 6.97621 0 7.69158 0 8.4375L0 11.25C0 11.4986 0.0987721 11.7371 0.274587 11.9129C0.450403 12.0887 0.68886 12.1875 0.9375 12.1875C1.68342 12.1875 2.39879 12.4838 2.92624 13.0113C3.45368 13.5387 3.75 14.2541 3.75 15C3.75 15.7459 3.45368 16.4613 2.92624 16.9887C2.39879 17.5162 1.68342 17.8125 0.9375 17.8125C0.68886 17.8125 0.450403 17.9113 0.274587 18.0871C0.0987721 18.2629 0 18.5014 0 18.75L0 21.5625C0 22.3084 0.296316 23.0238 0.823762 23.5512C1.35121 24.0787 2.06658 24.375 2.8125 24.375H27.1875C27.9334 24.375 28.6488 24.0787 29.1762 23.5512C29.7037 23.0238 30 22.3084 30 21.5625V18.75C30 18.5014 29.9012 18.2629 29.7254 18.0871C29.5496 17.9113 29.3111 17.8125 29.0625 17.8125C28.3166 17.8125 27.6012 17.5162 27.0738 16.9887C26.5463 16.4613 26.25 15.7459 26.25 15C26.25 14.2541 26.5463 13.5387 27.0738 13.0113C27.6012 12.4838 28.3166 12.1875 29.0625 12.1875C29.3111 12.1875 29.5496 12.0887 29.7254 11.9129C29.9012 11.7371 30 11.4986 30 11.25V8.4375C30 7.69158 29.7037 6.97621 29.1762 6.44876C28.6488 5.92132 27.9334 5.625 27.1875 5.625H2.8125ZM1.875 8.4375C1.875 8.18886 1.97377 7.9504 2.14959 7.77459C2.3254 7.59877 2.56386 7.5 2.8125 7.5H27.1875C27.4361 7.5 27.6746 7.59877 27.8504 7.77459C28.0262 7.9504 28.125 8.18886 28.125 8.4375V10.4063C27.0654 10.6214 26.1127 11.1963 25.4284 12.0335C24.7441 12.8707 24.3703 13.9187 24.3703 15C24.3703 16.0813 24.7441 17.1293 25.4284 17.9665C26.1127 18.8037 27.0654 19.3786 28.125 19.5938V21.5625C28.125 21.8111 28.0262 22.0496 27.8504 22.2254C27.6746 22.4012 27.4361 22.5 27.1875 22.5H2.8125C2.56386 22.5 2.3254 22.4012 2.14959 22.2254C1.97377 22.0496 1.875 21.8111 1.875 21.5625V19.5938C2.93465 19.3786 3.88732 18.8037 4.5716 17.9665C5.25589 17.1293 5.6297 16.0813 5.6297 15C5.6297 13.9187 5.25589 12.8707 4.5716 12.0335C3.88732 11.1963 2.93465 10.6214 1.875 10.4063V8.4375Z" fill="white"/>
</svg>
