<svg width="25" height="25" viewBox="0 0 25 25" fill="none" xmlns="http://www.w3.org/2000/svg">
<g clip-path="url(#clip0_2415_7968)">
<path d="M24.2463 12.1404C24.2463 12.0814 24.2463 12.0145 24.2437 11.9368C24.241 11.7198 24.2356 11.4761 24.2303 11.2163C24.2088 10.4689 24.1713 9.7243 24.1124 9.02252C24.0321 8.05555 23.9142 7.2493 23.7535 6.64395C23.5839 6.0122 23.2514 5.43604 22.7894 4.97304C22.3273 4.51005 21.7518 4.17643 21.1204 4.00555C20.3624 3.80198 18.8785 3.67609 16.7892 3.59841C15.7954 3.56091 14.7321 3.5368 13.6687 3.52341C13.2963 3.51805 12.9508 3.51537 12.6401 3.5127H11.8526C11.5419 3.51537 11.1963 3.51805 10.824 3.52341C9.76062 3.5368 8.69723 3.56091 7.70348 3.59841C5.61419 3.67877 4.12759 3.80466 3.37223 4.00555C2.74063 4.17602 2.16492 4.50949 1.7028 4.97255C1.24067 5.43561 0.908374 6.012 0.739195 6.64395C0.575802 7.2493 0.460624 8.05555 0.380266 9.02252C0.321338 9.7243 0.283838 10.4689 0.262409 11.2163C0.254374 11.4761 0.251695 11.7198 0.249016 11.9368C0.249016 12.0145 0.246338 12.0814 0.246338 12.1404V12.2904C0.246338 12.3493 0.246338 12.4163 0.249016 12.4939C0.251695 12.7109 0.257052 12.9547 0.262409 13.2145C0.283838 13.9618 0.321338 14.7064 0.380266 15.4082C0.460624 16.3752 0.578481 17.1814 0.739195 17.7868C1.08205 19.0698 2.08919 20.0823 3.37223 20.4252C4.12759 20.6288 5.61419 20.7547 7.70348 20.8323C8.69723 20.8698 9.76062 20.8939 10.824 20.9073C11.1963 20.9127 11.5419 20.9154 11.8526 20.9181H12.6401C12.9508 20.9154 13.2963 20.9127 13.6687 20.9073C14.7321 20.8939 15.7954 20.8698 16.7892 20.8323C18.8785 20.752 20.3651 20.6261 21.1204 20.4252C22.4035 20.0823 23.4106 19.0725 23.7535 17.7868C23.9169 17.1814 24.0321 16.3752 24.1124 15.4082C24.1713 14.7064 24.2088 13.9618 24.2303 13.2145C24.2383 12.9547 24.241 12.7109 24.2437 12.4939C24.2437 12.4163 24.2463 12.3493 24.2463 12.2904V12.1404ZM22.3178 12.2797C22.3178 12.3359 22.3178 12.3975 22.3151 12.4698C22.3124 12.6788 22.3071 12.9091 22.3017 13.1582C22.2829 13.8707 22.2454 14.5832 22.1892 15.2448C22.1169 16.1073 22.0151 16.8145 21.8892 17.2886C21.7231 17.9073 21.2356 18.3975 20.6196 18.5609C20.0571 18.7109 18.6401 18.8314 16.7142 18.9038C15.7392 18.9413 14.6892 18.9654 13.6419 18.9788C13.2749 18.9841 12.9347 18.9868 12.6294 18.9868H11.8633L10.8508 18.9788C9.80348 18.9654 8.75616 18.9413 7.77848 18.9038C5.85259 18.8288 4.43294 18.7109 3.87312 18.5609C3.25705 18.3948 2.76955 17.9073 2.60348 17.2886C2.47759 16.8145 2.3758 16.1073 2.30348 15.2448C2.24723 14.5832 2.21241 13.8707 2.19098 13.1582C2.18295 12.9091 2.18027 12.6761 2.17759 12.4698C2.17759 12.3975 2.17491 12.3332 2.17491 12.2797V12.1511C2.17491 12.0948 2.17491 12.0332 2.17759 11.9609C2.18027 11.752 2.18562 11.5216 2.19098 11.2725C2.20973 10.56 2.24723 9.84752 2.30348 9.18591C2.3758 8.32341 2.47759 7.61627 2.60348 7.14216C2.76955 6.52341 3.25705 6.03323 3.87312 5.86984C4.43562 5.71984 5.85259 5.5993 7.77848 5.52698C8.75348 5.48948 9.80348 5.46537 10.8508 5.45198C11.2178 5.44662 11.5579 5.44395 11.8633 5.44395H12.6294L13.6419 5.45198C14.6892 5.46537 15.7365 5.48948 16.7142 5.52698C18.6401 5.60198 20.0597 5.71984 20.6196 5.86984C21.2356 6.03591 21.7231 6.52341 21.8892 7.14216C22.0151 7.61627 22.1169 8.32341 22.1892 9.18591C22.2454 9.84752 22.2803 10.56 22.3017 11.2725C22.3097 11.5216 22.3124 11.7547 22.3151 11.9609C22.3151 12.0332 22.3178 12.0975 22.3178 12.1511V12.2797ZM9.86241 15.8047L16.0767 12.1886L9.86241 8.62609V15.8047Z" fill="white" fill-opacity="0.85"/>
</g>
<defs>
<clipPath id="clip0_2415_7968">
<rect width="24" height="24" fill="white" transform="translate(0.246338 0.213867)"/>
</clipPath>
</defs>
</svg>
