<svg width="56" height="56" viewBox="0 0 56 56" fill="none" xmlns="http://www.w3.org/2000/svg">
<path d="M27.8742 5.34448C17.4547 5.34448 8.37567 11.3085 5.75417 19.782H3.82917C3.3189 19.7825 2.81493 19.8947 2.35256 20.1105C1.89019 20.3263 1.48061 20.6407 1.1525 21.0315C0.824395 21.4222 0.585707 21.8801 0.453157 22.3728C0.320608 22.8655 0.297403 23.3813 0.385169 23.884L1.27417 28.994C1.48603 30.2122 2.12108 31.3166 3.06742 32.1124C4.01376 32.9083 5.21065 33.3446 6.44717 33.3445H7.36767C8.41767 35.14 9.77567 36.7675 11.3752 38.1815L8.82367 46.851C8.74694 47.112 8.73214 47.3873 8.78043 47.6551C8.82872 47.9228 8.93878 48.1757 9.10186 48.3934C9.26494 48.6112 9.47655 48.788 9.71989 48.9097C9.96323 49.0314 10.2316 49.0946 10.5037 49.0945H17.5037C17.8648 49.0945 18.217 48.9829 18.5122 48.7748C18.8073 48.5668 19.0308 48.2726 19.1522 47.9325L20.8392 43.204C23.0617 43.8095 25.4242 44.1385 27.8777 44.1385C30.3522 44.1385 32.7357 43.806 34.9757 43.1865L36.8762 47.9885C37.0053 48.3148 37.2295 48.5947 37.5197 48.7919C37.81 48.9891 38.1528 49.0945 38.5037 49.0945H45.5037C45.7767 49.0942 46.046 49.03 46.2898 48.9071C46.5336 48.7841 46.7453 48.6058 46.9079 48.3864C47.0704 48.1671 47.1794 47.9127 47.2261 47.6436C47.2728 47.3746 47.2559 47.0983 47.1767 46.837L44.5132 38.066C48.3352 34.6325 50.7502 29.9565 50.7502 24.7415C50.7502 24.234 50.7257 23.7265 50.6802 23.233C51.5937 22.848 52.4582 22.302 53.1477 21.679C54.2502 22.75 56.0002 22.75 56.0002 20.2195C56.0002 21 54.2502 21 54.3867 20.1285C54.5337 19.8475 54.6398 19.547 54.7017 19.236C54.784 18.8306 54.7623 18.411 54.6387 18.0162C54.5151 17.6215 54.2935 17.2645 53.9947 16.9785C53.6795 16.6536 53.2648 16.4434 52.8164 16.3813C52.3681 16.3191 51.9118 16.4086 51.5202 16.6355C51.16 16.8345 50.8529 17.117 50.6245 17.4592C50.3961 17.8015 50.2532 18.1935 50.2077 18.6025C50.1237 19.453 50.4947 20.2825 51.3277 20.8915C51.0386 21.0913 50.7357 21.2703 50.4212 21.427C48.5522 12.103 38.9272 5.34448 27.8742 5.34448V5.34448ZM52.9797 18.9105C52.9173 19.1765 52.8006 19.4268 52.6367 19.6455C52.5843 19.6182 52.5329 19.589 52.4827 19.558C51.9717 19.243 51.9332 18.9455 51.9507 18.7775C51.9679 18.6519 52.0138 18.532 52.0848 18.427C52.1558 18.322 52.25 18.2347 52.3602 18.172C52.5317 18.0775 52.6402 18.0985 52.7557 18.214C52.853 18.2986 52.9253 18.4082 52.9648 18.531C53.0042 18.6538 53.0094 18.785 52.9797 18.9105V18.9105ZM21.4832 16.6355C21.259 16.7116 21.0216 16.7413 20.7856 16.7231C20.5495 16.7048 20.3197 16.6387 20.1099 16.529C19.9 16.4193 19.7147 16.2681 19.565 16.0847C19.4153 15.9013 19.3044 15.6894 19.239 15.4618C19.1736 15.2343 19.155 14.9958 19.1844 14.7609C19.2138 14.526 19.2906 14.2995 19.4101 14.0951C19.5296 13.8907 19.6893 13.7126 19.8796 13.5718C20.0699 13.4309 20.2868 13.3301 20.5172 13.2755C22.9096 12.5918 25.386 12.2466 27.8742 12.25C30.5447 12.25 33.1137 12.635 35.5042 13.3525C35.7243 13.4184 35.9293 13.5271 36.1075 13.6723C36.2857 13.8175 36.4335 13.9963 36.5425 14.1987C36.6516 14.401 36.7197 14.6228 36.743 14.8514C36.7663 15.0801 36.7444 15.3111 36.6784 15.5312C36.6125 15.7514 36.5038 15.9564 36.3586 16.1346C36.2134 16.3127 36.0346 16.4606 35.8322 16.5696C35.6299 16.6786 35.4081 16.7468 35.1795 16.7701C34.9508 16.7934 34.7198 16.7714 34.4997 16.7055C32.3493 16.0671 30.1173 15.7452 27.8742 15.75C25.6342 15.75 23.4817 16.065 21.4832 16.639V16.6355ZM17.5002 21.875C17.5002 22.5712 17.2236 23.2389 16.7313 23.7311C16.239 24.2234 15.5714 24.5 14.8752 24.5C14.179 24.5 13.5113 24.2234 13.019 23.7311C12.5267 23.2389 12.2502 22.5712 12.2502 21.875C12.2502 21.1788 12.5267 20.5111 13.019 20.0188C13.5113 19.5265 14.179 19.25 14.8752 19.25C15.5714 19.25 16.239 19.5265 16.7313 20.0188C17.2236 20.5111 17.5002 21.1788 17.5002 21.875V21.875Z" fill="#FF7785"/>
</svg>
